/* XPM */
static char *ball[] = {
/* columns rows colors chars-per-pixel */
"25 24 256 2 ",
"   c #020301",
".  c #0C0101",
"X  c #000800",
"o  c #01010B",
"O  c #0B000C",
"+  c #0B0E00",
"@  c #140000",
"#  c #1B0000",
"$  c #170605",
"%  c #121200",
"&  c #151507",
"*  c #0D0515",
"=  c #180D1B",
"-  c #230000",
";  c #2B0100",
":  c #250C05",
">  c #320200",
",  c #3B0000",
"<  c #3B0A00",
"1  c #340A00",
"2  c #331602",
"3  c #2A0614",
"4  c #34240D",
"5  c #070425",
"6  c #3F2F22",
"7  c #430000",
"8  c #4C0100",
"9  c #440D01",
"0  c #4C0E00",
"q  c #550000",
"w  c #5C0100",
"e  c #520D01",
"r  c #4B1100",
"t  c #4E150C",
"y  c #431A01",
"u  c #541401",
"i  c #5C1501",
"p  c #591C05",
"a  c #401C10",
"s  c #591C14",
"d  c #640100",
"f  c #6D0201",
"g  c #620D00",
"h  c #6C0901",
"j  c #62040A",
"k  c #740300",
"l  c #7C0200",
"z  c #720B02",
"x  c #770C09",
"c  c #7A0609",
"v  c #651400",
"b  c #6C1A01",
"n  c #6F1006",
"m  c #7B1300",
"M  c #741D00",
"N  c #791807",
"B  c #651814",
"V  c #670117",
"C  c #482200",
"Z  c #4B2600",
"A  c #5C2601",
"S  c #542517",
"D  c #53331C",
"F  c #642601",
"G  c #622B00",
"H  c #6D2400",
"J  c #732C00",
"K  c #7E2E00",
"L  c #763C00",
"P  c #6A2516",
"I  c #762418",
"U  c #563925",
"Y  c #492C28",
"T  c #793F2B",
"R  c #653C28",
"E  c #594000",
"W  c #554410",
"Q  c #6C5900",
"!  c #78531E",
"~  c #7B4438",
"^  c #7E5C52",
"/  c #785A42",
"(  c #840600",
")  c #890000",
"_  c #870B00",
"`  c #8B0B01",
"'  c #870A0A",
"]  c #930000",
"[  c #940902",
"{  c #851A02",
"}  c #861A00",
"|  c #951C00",
" . c #921501",
".. c #8F1C1B",
"X. c #81191E",
"o. c #941915",
"O. c #A61605",
"+. c #A11111",
"@. c #842303",
"#. c #8D2C00",
"$. c #872807",
"%. c #942900",
"&. c #8F3800",
"*. c #943A00",
"=. c #993E02",
"-. c #973300",
";. c #96201E",
":. c #953F10",
">. c #823916",
",. c #A43402",
"<. c #A93904",
"1. c #A42816",
"2. c #AE3A11",
"3. c #A21C25",
"4. c #822426",
"5. c #8B3F28",
"6. c #9B3A34",
"7. c #9B2727",
"8. c #AA3724",
"9. c #B13B21",
"0. c #A43835",
"q. c #B82631",
"w. c #804300",
"e. c #8C4B00",
"r. c #8F4B0C",
"t. c #974606",
"y. c #885500",
"u. c #9E5600",
"i. c #965100",
"p. c #985015",
"a. c #944A19",
"s. c #A34C00",
"d. c #A34600",
"f. c #B74F00",
"g. c #A45600",
"h. c #BD5200",
"j. c #B05905",
"k. c #A15219",
"l. c #B65615",
"z. c #AE451A",
"x. c #9C6500",
"c. c #957F10",
"v. c #AB6403",
"b. c #B36A01",
"n. c #BC6D02",
"m. c #B56600",
"M. c #AF7801",
"N. c #B2720C",
"B. c #BF7800",
"V. c #AE6310",
"C. c #AE7114",
"Z. c #B57416",
"A. c #975022",
"S. c #8F453A",
"D. c #9F583A",
"F. c #AD4C22",
"G. c #A8423D",
"H. c #AF5528",
"J. c #8A6C2D",
"K. c #956628",
"L. c #886737",
"P. c #947535",
"I. c #B8773C",
"U. c #A27B3A",
"Y. c #D04212",
"T. c #C16800",
"R. c #C96C01",
"E. c #C47403",
"W. c #DB7400",
"Q. c #D37801",
"!. c #DA641E",
"~. c #C87B18",
"^. c #CD6413",
"/. c #E26E03",
"(. c #EC7000",
"). c #C45621",
"_. c #C74934",
"`. c #C77826",
"'. c #DA7729",
"]. c #E37422",
"[. c #EA7430",
"{. c #885A43",
"}. c #BA4D50",
"|. c #956E45",
" X c #BB6C46",
".X c #B57069",
"XX c #EC7344",
"oX c #BD9600",
"OX c #B8801F",
"+X c #BCA705",
"@X c #BBAA14",
"#X c #BC9C2D",
"$X c #AF8736",
"%X c #DE8C02",
"&X c #D79605",
"*X c #DB9116",
"=X c #E18E0A",
"-X c #FF870B",
";X c #E09902",
":X c #F88712",
">X c #DDAC00",
",X c #EDA80D",
"<X c #EFB403",
"1X c #E8B702",
"2X c #FFAD1B",
"3X c #F7BB1D",
"4X c #FEB919",
"5X c #E8B01B",
"6X c #C69121",
"7X c #DB9325",
"8X c #C48132",
"9X c #D8923C",
"0X c #FF952D",
"qX c #EB8436",
"wX c #E58225",
"eX c #CEA33D",
"rX c #EDA327",
"tX c #FFA428",
"yX c #F9BA29",
"uX c #F7A63B",
"iX c #E6B638",
"pX c #F6BC3C",
"aX c #FAB736",
"sX c #EEDD00",
"dX c #F3D203",
"fX c #FCD805",
"gX c #E0C81D",
"hX c #F8C918",
"jX c #FBD61B",
"kX c #FEE108",
"lX c #FFF005",
"zX c #FFF90F",
"xX c #FFE61F",
"cX c #FFF213",
"vX c #FCC52A",
"bX c #FFC52A",
"nX c #FFD123",
"mX c #FFC734",
"MX c #FFC138",
"NX c #F5D039",
"BX c #FFE72F",
"VX c #FFE631",
"CX c #FFFD36",
"ZX c #B48541",
"AX c #A98D66",
"SX c #CB9042",
"DX c #FD9541",
"FX c #F2884A",
"GX c #D9AD40",
"HX c #FFB349",
"JX c #FEAC55",
"KX c #DFB666",
"LX c #FFC54B",
"PX c #F7D14C",
"IX c #FFF045",
"UX c #FFDE74",
/* pixels */
"O O o 5 5 5 * - u $.F.{ h I B 8 , # @ . % X X X o ",
"    =   o O 3 - T t.z.m w w q t p T {.D 4 . . X o ",
"& X X % $ R ~ i d h z w 8 8 8 I G.6.S.S.~ # @ $ . ",
"X X + @ L.A 8 q m } { c V 8 , j ;.o.x q B t - @ . ",
"X X & J.A b d l 1.8.7.X.V 8 7 , q h w 7 e S 2 @ @ ",
"  X W J.p.#.9._._ _ k d 8 w b d k d d N I P 9 ; @ ",
"  Y L. Xt.z.2.( l z z @.x $.H.2.O.] ) [ ' 0.4.7 ; ",
"@ AXZX0 #.} ( | f d $.j.d.l.0X[.Y.) k O.] o...I 7 ",
"y KX6Xu &.wX'.^.v u.5XaXQ.f.tX/.].%.f l  .o.;.0.n ",
"y.PX&Xe.g.n.JXJXb.MX3X4X2XtX-X:XHX~.*.m k f f k h ",
"y.MX1X<X&Xi.9X8XN.pXmX%XT.:X(./.=XrXJX[.2.` ' N q ",
"Q iX>XBXvXx.w.p w.Z.aXv.=.h.:XW.,XvXLXuXXX_.;.d w ",
"H iXoXhXNXeXG 7 8 b &.*.s.=.Q.%XjXhX;X<.<.O.+.l c ",
"9 eXoXgXIXUXG 9 w 8 h '.T.m.&X4XfXfX;X#. .l ] q.' ",
": $X@X+X6X#Xr , w q ,.qXE.&X1XdXzXcX<Xj.!.[ l 3.c ",
"4 / OXQ E C 9 q h 8.FXR.bXCXkXlXfXxX4XR.[.( k }.j ",
": C ! Z < r , w $.l.DXB.xXcXsXzXnXyXW.T.).m d .X- ",
"# y S < t , >  XM b b.vXxXcXlXkX2X0X^.,.| M u S @ ",
"@ # a 1 > r u a.v J *XmXVXdXCXjXs.-.%.m w g s - @ ",
"# @ Y ^ R 9 r r.V.~.m.yXbXIXjX5Xn.@.d d g P s # . ",
"O . @ : / |.K.9XOX7XrXu.&XMXiXM.t.*.t.H.5.s ; @   ",
"o = O . U AX$XA v.7XaXE.J N.C.e.b p. XD.P - # @   ",
"* o   X . 2 J.$XZ.r.n.~.Z.p J H I.A.F , - - @ O   ",
"o o   . + . # : A N.b.V.`.n b i i > > > - @ $     "
};
