/* XPM */
static char *exitpressed[] = {
/* columns rows colors chars-per-pixel */
"80 22 256 2 ",
"   c #030101",
".  c #0C0101",
"X  c #040706",
"o  c #140101",
"O  c #1B0000",
"+  c #110A00",
"@  c #17080A",
"#  c #071109",
"$  c #230000",
"%  c #2A0101",
"&  c #29080A",
"*  c #3C0100",
"=  c #350506",
"-  c #381C17",
";  c #4A0000",
":  c #440000",
">  c #590501",
",  c #4A1A19",
"<  c #561A1A",
"1  c #4E221F",
"2  c #7A2018",
"3  c #621B21",
"4  c #582923",
"5  c #4B292B",
"6  c #662A2C",
"7  c #693839",
"8  c #773838",
"9  c #722F30",
"0  c #78463F",
"q  c #733C41",
"w  c #7C4545",
"e  c #717274",
"r  c #59776F",
"t  c #853C3B",
"y  c #993A3D",
"u  c #A63336",
"i  c #C83A3D",
"p  c #DA3D3C",
"a  c #D43B3D",
"s  c #8F443E",
"d  c #BB463D",
"f  c #DC423E",
"g  c #D7473F",
"h  c #CE403E",
"j  c #893E42",
"k  c #963D44",
"l  c #AB3E45",
"z  c #BB3742",
"x  c #CC3D45",
"c  c #CC3E4A",
"v  c #C63E49",
"b  c #D43D43",
"n  c #DB3E43",
"m  c #D43E4A",
"M  c #DB3D4A",
"N  c #D53F52",
"B  c #E33D43",
"V  c #E93D45",
"C  c #E33D4A",
"Z  c #8B4143",
"A  c #884548",
"S  c #9C4344",
"D  c #944C4C",
"F  c #984848",
"G  c #96544E",
"H  c #9F4B51",
"J  c #8D5956",
"K  c #9D5D59",
"L  c #9D5755",
"P  c #8F5049",
"I  c #A74749",
"U  c #BD454B",
"Y  c #B64749",
"T  c #BA534A",
"R  c #A64B51",
"E  c #B54B54",
"W  c #BD4C53",
"Q  c #BC4C59",
"!  c #A45A55",
"~  c #A95856",
"^  c #A55D5C",
"/  c #A95759",
"(  c #B45254",
")  c #BB5355",
"_  c #BB5559",
"`  c #B6585A",
"'  c #9E625C",
"]  c #A1625D",
"[  c #AE655F",
"{  c #B9625B",
"}  c #AC5D62",
"|  c #B95B66",
" . c #886B67",
".. c #976969",
"X. c #85776B",
"o. c #97786B",
"O. c #996F7A",
"+. c #8B7C7B",
"@. c #897775",
"#. c #9C7A74",
"$. c #987879",
"%. c #8A6875",
"&. c #AB6B64",
"*. c #AA6665",
"=. c #B56466",
"-. c #A5716A",
";. c #A66A76",
":. c #B56979",
">. c #A77677",
",. c #B77A7A",
"<. c #B6716A",
"1. c #CC4445",
"2. c #CC4946",
"3. c #CC454B",
"4. c #C44B4D",
"5. c #CC4A4B",
"6. c #C54546",
"7. c #D44345",
"8. c #DC4245",
"9. c #D54846",
"0. c #D4444B",
"q. c #DB434B",
"w. c #D34A4C",
"e. c #DA494C",
"r. c #D84847",
"t. c #C5514C",
"y. c #D8534D",
"u. c #CC4552",
"i. c #C44C52",
"p. c #CB4B52",
"a. c #C84B57",
"s. c #D34450",
"d. c #DB4451",
"f. c #D24B53",
"g. c #DB4B53",
"h. c #D54B5A",
"j. c #C45255",
"k. c #C4525A",
"l. c #CB525A",
"z. c #CA5958",
"x. c #D55152",
"c. c #DB5354",
"v. c #D1555C",
"b. c #D8575B",
"n. c #E14245",
"m. c #E3444B",
"M. c #E44A4E",
"N. c #EC4A4E",
"B. c #E34B53",
"V. c #E74856",
"C. c #E4535A",
"Z. c #EC555C",
"A. c #E65756",
"S. c #F3535B",
"D. c #F05A5C",
"F. c #EF4E4D",
"G. c #CB625E",
"H. c #D1645F",
"J. c #ED625B",
"K. c #CC5B63",
"L. c #C95862",
"P. c #D45B63",
"I. c #D85B65",
"U. c #E75660",
"Y. c #F45C63",
"T. c #C96569",
"R. c #D66769",
"E. c #C76977",
"W. c #D86A75",
"Q. c #C67C7B",
"!. c #D87578",
"~. c #E66668",
"^. c #E5746C",
"/. c #E96D73",
"(. c #FE6D73",
"). c #E27374",
"_. c #E57879",
"`. c #FB757A",
"'. c #8A8178",
"]. c #988475",
"[. c #BC857C",
"{. c #C48A7E",
"}. c #E4817C",
"|. c #997B86",
" X c #A27A81",
".X c #AB7883",
"XX c #B87886",
"oX c #B16E80",
"OX c #C57986",
"+X c #D77A85",
"@X c #C26C87",
"#X c #E57B87",
"$X c #F97D84",
"%X c #7D8286",
"&X c #998686",
"*X c #A88486",
"=X c #B78686",
"-X c #AC8E92",
";X c #BA8B93",
":X c #AA9596",
">X c #BF979B",
",X c #B3918C",
"<X c #B8A5A1",
"1X c #C28586",
"2X c #C78989",
"3X c #D78789",
"4X c #C79A8C",
"5X c #D78B92",
"6X c #C79A96",
"7X c #D29594",
"8X c #DA9797",
"9X c #CD8E91",
"0X c #EA8788",
"qX c #F78588",
"wX c #E6928E",
"eX c #F78591",
"rX c #EE9195",
"tX c #C8A399",
"yX c #E3A29C",
"uX c #D29BA0",
"iX c #E89FA4",
"pX c #F89DA4",
"aX c #DCACAA",
"sX c #D2B1B0",
"dX c #E5A5A3",
"fX c #FDA3AB",
"gX c #FBA5A4",
"hX c #FCACB4",
"jX c #FBB2B4",
"kX c #F9BBBA",
"lX c #EEAFB8",
"zX c #FCC2BD",
"xX c #FACCBF",
"cX c #EDC3B3",
"vX c #EDBCC3",
"bX c #FCBFC4",
"nX c #F7B9C1",
"mX c #EBC6C3",
"MX c #E9CAC2",
"NX c #FDCACB",
"BX c #F9C7C6",
"VX c #F7C7D1",
"CX c #FFDCD4",
"ZX c #FFDDD9",
"AX c #F8D7D3",
"SX c #FFD5CB",
"DX c #FFE1D5",
"FX c #FFE3DB",
"GX c #FFEADD",
"HX c #EEE3DD",
"JX c #DDFDF6",
"KX c #C9EEE6",
"LX c #E8EAE3",
"PX c #FFEDE5",
"IX c #E4F1EB",
"UX c #EFF7F0",
/* pixels */
"  @   . @ = A j 9 A J  . .].>.o.%X+.+.+.>.#.-.#. XO.|.&X|.>.>.=X*X-X&X&X-X*X[.=X=X*X*X&X'.-XXXoX>.#..X.X$.+.&Xo.#.o.#.$.>. X+.'.X.].].o.J s 8 8 8 = % $ . @ X e ",
". . o 5 q 8 j j OX} kXNXxXBXzXNXVXVXBXBXBXzXBXBXbXVXVXvXnXVXjXjXlXvXmXmXsXlXjXhXzXaXcXMXMXzXlXhXzXkXbXbXVXVXmXxXzXxXSXNXbXbXBXBXxXcXxXcXSXxX^ ,.Z P 7 1 &   X %X",
". . - 7 A D I T.fXpXqX!.L.$X!.R.eX0X#X).^.)._.3XhX5XfXhX| Q k.i.!.pXrXhX| fXW.W.Y jXyX2X3X_ Q eX=.#X#X+XdXhXgX{ rXwXqX0XeXeXwXwX0XfX$XK.k.$XeXE H D t 7 5 @ X e ",
"o - w J Z S y k.i.a.v v h.v h.v.u.s.0.e.e.r.3.U W E } | ( ( R.K.` pXOX+X( fXi.l.j.gX{.{._ k.Q W 0X| | | ^ [ !.T h t.t.y.0.x 5.5.i.a.N N N h.i.K.( y S D q 5 @ e ",
"$ 4 s s s I T.R.^.3.U.d.m B.m v c 3.b n 8.r.9.4.( ^ 7X6XtX4X4X4X4X2X>.dX~ !.k._.R wX3XG <.,.[ 5X&.{.7X..>.8XF T t.2.1.r.q.M m.7.2.0.d.V.N m h.R.) ( I k A 7 o e ",
", w G I ( Y G.R.4.6.1.Z.q.q.0.Y.B.g.8.n n.8.5.4.E.% $ o . O . o sXtXO $ L 3XR 8XjXkX' yX$ $ 4X$ $ $ O o O $ * : T 5.6.r.q.b 8.h w.w.M M V.U.z T _._.Y l H j 5 %.",
"7 G s s T Y H.^.^.}.J.2.(.(.$XY.(.(.`.`.`.`.~.T.1X% o o . O o o O ,X$ o % 6X6XsX$ O J >.O . >XO O o +     O $ : G.^.qXqX/.b.~.~.t._.`.`.x v qX^._.z.u Y k D q O.",
"9 s d ~ T W d t.2.9.2.9.i e.0.0.g.d.M 8.9.r.p.E ,.o O :X&X&X-X|.&X*X XO o   :X. . O XX>.. . -XO.>.:X  X   $.[.<.G.G.Y 4.p.4.x.6.6.x.w.w.w.b.x.z.t.T 4.j.E k 9 uX",
"y I I _ j.4.f.1.9.9.7.0.r.q.M n m 0.q.e.0.w.u.Q ;.O o |.|.%.%. X>.XXXXXXo X     O oX:.oXO o ;X} >.%.X   X O } L.t.5.s.N N N m.C 8.8.7.7.7.7.7.2.1.2.x.j.Y S A dX",
"l Y W j.4.3.g.q.m.q.r.9.0.q.m.M e.w.b 7.e.g.0.E ,.o @ o @ o O O oXXX@XXXo     . |.XX@X;.O O 9X:.:.>..   o $ / i.0.e.d.B.C C B B B B C 8.8.7.7.9.9.w.w.3.E E j 5X",
"z p.a.p.3.3.V.S.Y.S.A.c.C.C.U.Y.A.c.y.y.A.A.C.l..X.   . .   . o $ OX+XXX@.#     O.oX@X:.O . 7X=.K.E.$ o O } i.0.7.m.B.N.m.8.B B V V V n.q.n b n m.8.2.4.W / Z 5X",
"z u.u.3.0.g.S.S.S.S.B.x.x.h.B.C.g y.J.A.g a N./.=XO . sX:X. . o $ 2X:.O..     . O ;.+X:.. @ 2XW.W.E.O . O } v.M.m.F.D.D.A.A.F.F.N.N.M.M.e.B.M.M.n.a 7.5.j.( Z dX",
"z v u.3.g.B.A.M.m.8.7.1.2.5.5.w.r.8.p p f m.m.i.[.o O ;X*XXXXX1X5X1X[.O . + X   . O OX,.. . 3Xk.f.!.O   O ^ b.9.p f 8.r.r.9.f f 8.8.r.q.e.e.B.B.r.8.q.w.4.( j 7X",
"u 4.p.f.C.M.m.f r.7.g g 2.7.2.7.M n.m.n.p n C h.[.o o >X.X=X;X1XQ.1X,Xo O <X-X@   o .X;.+ . pXP.u.T.o + O Q.v.a n.n.n.8.r.r.n.f f 7.n b 8.9.8.q.p M.B.e.a.` Z ,.",
"2 Y j.5.e.r.8.f 8.p B B C C n 7.q.M n n 8.M C u.6X. . o @ . o . mX,Xo o . *XsX6Xo . O *X. O 5Xk.h.a.O o $ / 0.C V B n n 0.r.8.p e.m.m.C C n.8.8.n m.N.B.h._ 9 #.",
"> s ( j.5.1.7.8.n.B B V V V n.n M q.q.q.8.q.C p.2XO $ O O O o $ $ 1X$ O O 9XOX5X% $ % 1XO $ 3XeXm v.dX$ = _ 0.V V B C M 0.e.n.n.a b V V V C 8.7.q.M m.b.j.k 4 ..",
"% 4 G | j.3.0.r.n.C B B B n n n 8.n n 8.n 8.8.3.R.}.; ; !.0X_.R.}.0X; ; z.k.j.i.W.; z.k.!._.v.f.0.2./.R.> > 8.8.f n n 8.8.f n f 8.8.n.B p B 8.q.0.f.U _ } 7 $ X.",
"+ = 6 } T.L.3.b m.n.n B C r.q.r.8.8.n.n 8.8.q.r.2.w.w.5.1.2.f.3.7.2.2.w.5.2.2.1.x.i 0.s.a b C.x w.x.1.9.7.i 9.a 8.8.8.8.8.C n.C a n 8.n.r.8.q.7.f.`.!./ q 1 o X.",
"$ = , 8 / L.P.s.0.m m m r.0.m m q.M C C C M M m g.x g.e.3.d.c s.g.i g.0.1.g.c 0.m e.N B.s.B.d.g.x f.w.w.g.e.7.w.7.7.n q.M M n M e.0.0.b m 0.g.s.h.K.| j 4 & . @.",
". o $ = 3 k E k./.R.b.4.U 4.a.l.p.f.f.u.f.u.p.a.v.K.W j.R.P.a.a.j.l.U Y l.a.W a.I.i.I.I././.U K.K.W v.k.Y 4.i.3.4.p.p.5.p.p.p.p.4.i.i.4.p.z.P.T.E l 9 = $ o X e ",
"X     o O = , 6 t t H ~ ^ / / L ! ! ! ! ! ! ! K ' ..] -.&.' &.' G ' K &.' P ' K ^ ' &.*.<.' *.' *.^ ^ L ^ *.L ! ! ! ~ ! ~ ~ ~ ~ ! ! ! L G A s 8 < = O o @   # r ",
"JXJXIXLXLXAXSXCXZXZXCXCXCXAXZXFXCXDXDXDXCXDXDXFXGXDXGXGXDXPXPXDXPXCXDXDXDXFXGXDXCXDXDXFXDXFXPXFXZXFXPXFXDXDXSXGXDXCXCXCXCXCXCXZXCXCXZXZXDXFXCXAXAXPXUXLXIXJXKXJX"
};
