/* XPM */
static char *exitunpressed[] = {
/* columns rows colors chars-per-pixel */
"80 22 256 2 ",
"   c #030100",
".  c #0B0101",
"X  c #070A0B",
"o  c #130201",
"O  c #1B0403",
"+  c #190A06",
"@  c #240303",
"#  c #2E0607",
"$  c #361513",
"%  c #261712",
"&  c #3E2425",
"*  c #4E1818",
"=  c #4E1D20",
"-  c #482A2A",
";  c #5B3839",
":  c #532D2E",
">  c #663734",
",  c #7B3430",
"<  c #5F4141",
"1  c #774C4C",
"2  c #7D5455",
"3  c #74484A",
"4  c #6A7271",
"5  c #7E7977",
"6  c #74706D",
"7  c #855858",
"8  c #94575A",
"9  c #864948",
"0  c #A45652",
"q  c #955960",
"w  c #8F5E61",
"e  c #A05D64",
"r  c #936365",
"t  c #9B6467",
"y  c #967775",
"u  c #8D6D6D",
"i  c #A36B6E",
"p  c #AD6B6E",
"a  c #A46369",
"s  c #B4636C",
"d  c #BC686D",
"f  c #BA6467",
"g  c #AD6C73",
"h  c #B46D73",
"j  c #BB6972",
"k  c #AC7472",
"l  c #AA7B79",
"z  c #B37375",
"x  c #B37479",
"c  c #B57D7A",
"v  c #BB7C7C",
"b  c #BC7376",
"n  c #B0716C",
"m  c #C76C6E",
"M  c #C5716F",
"N  c #C96C73",
"B  c #C36B73",
"V  c #D06C73",
"C  c #C47174",
"Z  c #C97375",
"A  c #CA7976",
"S  c #CC7B7A",
"D  c #C27778",
"F  c #D1737A",
"G  c #D47B7B",
"H  c #D97B7C",
"J  c #7D807C",
"K  c #98877F",
"L  c #B2827E",
"P  c #CC817C",
"I  c #D2817E",
"U  c #B97E80",
"Y  c #DB7F82",
"T  c #C27C84",
"R  c #B58582",
"E  c #B58A85",
"W  c #B98989",
"Q  c #A6948D",
"!  c #BA8D94",
"~  c #AD9692",
"^  c #AB9994",
"/  c #AA9596",
"(  c #B49493",
")  c #BA9091",
"_  c #B8999B",
"`  c #AB8F8E",
"'  c #BAA19D",
"]  c #BE9BA1",
"[  c #BCA2A1",
"{  c #B9A9A2",
"}  c #BDB4AD",
"|  c #CD8485",
" . c #CA8886",
".. c #CE858C",
"X. c #CC8A8B",
"o. c #C38487",
"O. c #D48484",
"+. c #DC8483",
"@. c #D3848A",
"#. c #DC838A",
"$. c #D28A8C",
"%. c #DB8A89",
"&. c #C48C91",
"*. c #CC8D93",
"=. c #CD8F99",
"-. c #D18D95",
";. c #D88995",
":. c #C39396",
">. c #C29A9B",
",. c #CB9B9D",
"<. c #C99499",
"1. c #DD9295",
"2. c #D29C9E",
"3. c #D99499",
"4. c #DB918E",
"5. c #E48486",
"6. c #E68886",
"7. c #E6848B",
"8. c #EB858A",
"9. c #E38A8B",
"0. c #EC8B8C",
"q. c #E98587",
"w. c #F18B8E",
"e. c #F3828F",
"r. c #EF908E",
"t. c #ED8E91",
"y. c #E88C9A",
"u. c #F28D91",
"i. c #F98B93",
"p. c #F68B95",
"a. c #EC9392",
"s. c #E29399",
"d. c #E39A9A",
"f. c #EA9C9D",
"g. c #E69599",
"h. c #F49394",
"j. c #FC9595",
"k. c #F59699",
"l. c #FD969A",
"z. c #F49A9C",
"x. c #FC9A9B",
"c. c #F69896",
"v. c #D5A19C",
"b. c #C7A69F",
"n. c #EAA09F",
"m. c #C59EA4",
"M. c #CF9CA5",
"N. c #D49DA2",
"B. c #DA9DA1",
"V. c #E49AA2",
"C. c #EC9DA2",
"Z. c #ED9AA6",
"A. c #F39DA2",
"S. c #FD9BA2",
"D. c #FB98A4",
"F. c #F18EA3",
"G. c #CAA6A8",
"H. c #D5A2A4",
"J. c #DBA3A2",
"K. c #DAA3A8",
"L. c #DCADAD",
"P. c #D9AAA6",
"I. c #DAB2AB",
"U. c #CCB7B5",
"Y. c #CEBEBA",
"T. c #D3B4B4",
"R. c #DCB4B4",
"E. c #D4B9B7",
"W. c #D5BCBB",
"Q. c #DBBBBB",
"!. c #DFB7BA",
"~. c #DCAFB2",
"^. c #EDA3A5",
"/. c #EBA9A6",
"(. c #EBA6AA",
"). c #E4ABAB",
"_. c #EBACAC",
"`. c #E5A6A9",
"'. c #F3A1A3",
"]. c #FAA1A6",
"[. c #F4A3AA",
"{. c #FBA3A9",
"}. c #F0A8AB",
"|. c #E4B2AE",
" X c #EBACB3",
".X c #E7AFB2",
"XX c #F2ABB4",
"oX c #E4B4B6",
"OX c #E9B2B4",
"+X c #E3B9B4",
"@X c #EBBBB5",
"#X c #E4B6BA",
"$X c #EBB5BA",
"%X c #E3B9BB",
"&X c #EABBBD",
"*X c #F3B6B5",
"=X c #F5B7BC",
"-X c #D9C3BF",
";X c #CFC2BC",
":X c #E4C1BD",
">X c #E8C0BE",
",X c #F2C3BC",
"<X c #DBBEC0",
"1X c #E2BFC2",
"2X c #EFBEC2",
"3X c #F6BEC1",
"4X c #D5C2C2",
"5X c #DCC4C3",
"6X c #DDC9C5",
"7X c #DBC6C8",
"8X c #E3C4C4",
"9X c #EBC3C4",
"0X c #E3CAC6",
"qX c #EBCBC4",
"wX c #E5C6C9",
"eX c #EBC6CA",
"rX c #E4CBCB",
"tX c #EBCBCB",
"yX c #F1C5C4",
"uX c #F2CBCB",
"iX c #F5C9C6",
"pX c #E4D3CE",
"aX c #ECD3CF",
"sX c #F7D2CB",
"dX c #EBD4D2",
"fX c #ECDAD4",
"gX c #E6D5D6",
"hX c #F3D3D5",
"jX c #FCD5D5",
"kX c #F4DAD5",
"lX c #FCD9D5",
"zX c #F5D5DA",
"xX c #FED6DC",
"cX c #F4DBDA",
"vX c #FCDBDB",
"bX c #F2CFD5",
"nX c #EDE4D9",
"mX c #F4E2DA",
"MX c #FDE3DD",
"NX c #FEEADC",
"BX c #FEDCE2",
"VX c #F7DEE2",
"CX c #E6EAEB",
"ZX c #F4E2E4",
"AX c #FFE5E3",
"SX c #FEEBE4",
"DX c #FFE6E8",
"FX c #FFEDEB",
"GX c #F6EFE5",
"HX c #FFF0E6",
"JX c #FFF2EB",
"KX c #FFEEF0",
"LX c #FFF3F2",
"PX c #FFFCF3",
"IX c #FFF9F9",
"UX c #ECF3F7",
/* pixels */
"      . # = 8 q 8 r y K Q ' _ ! ! ( ( / ( ( ) ( / / / / _ _ / { [ ' [ [ [ [ G.] m._ [ G._ _ { ^ ^ Q ~ ( ) ) ( ~ ~ ( ( ( ~ ^ ( ( Q Q ^ Q y i r r w $ @ O   .   4 ",
"X   + - 2 q a U M.1XAXSXkXdXhXxXxXvXcXcXlXjXjXlXcXZXBXzXzXzXdXdXaXaXpXpXcXhXbXzXbXcXgXrXhXdXpXpXfXmXvXkXbXjXkXkXkXkXjXvXcXcXvXzXMXfXdXvXDXvXoX&.t y 2 : O .   J ",
"    & 2 i x e *.3XyX9X-X8XtXuXeXeX0X6X0X0XqX9XeX7XrXrXwXeX9X0X:X-XrX6X5XwXwX<XeXwXrX6X4X0XwX6X5X7XrXrX8XuXuX0XwX0XqXqXeX0XrXeXwX6X0XeXyX9XyXyXyXL k i 7 - +   4 ",
". & r l h h z *XyXyX%X:X8X9X8X1X8X8X6X-X:X:X9X:X<X7X<X1X1X%X0X-X:X0X0X6X8XwXwX8X7X;XpX6X<X8X0XW.4X7X4X7XeXeX<XwX8X8X9X1XwX8X1X9X:X9XyX2X&X1X9XiXI.t p z 7 < . 4 ",
"@ 3 g s j s | OXI.+X>X>X&X#X#XR.$X$X#X#X+XOX$X#X<X4XY.<X<XU.Y.Y.W.T.-X5XT.W.8XW.4X;X6XW.Q.E.Q.W.<X<X7X<X<X<X!.!.Q.%X$X%X#X%X#X$X%X@X$X$X=X&XR.I.@Xv d f p 3 . 5 ",
": q j d T B s.XXOX|.|.)..XoX#X$X$X XOXOXOX.XOXR.T.gXgXgXVXfXnXmXtX%XtXhX<XE.<XU.gXgX6XG.MXaXQ.hXVXzXgXgXbXVXBX2XR.oX$XoXoXoXOX$XOX XXX X).OX+X@X/.d.Z m B e ; 5 ",
"9 d d m V N #.3.J./.OX_.`.`.). X X`.|././.)._.).T.LXKXAXDXBXFXDXiX%X2XAXAX;XU.7XFXvX#XG.LXFXR.sXBXVXDXIXKXKXBXiX).).(.(.`.).`.(. X(.[.(.XXOXL.v.4.O.m V d h 7 u ",
"8 d d Z F H F S  . . ...X.X.@...X.X.X.X.X.$.X.*.>.DXzXG.m.>.m.>.:.&.N.xXFX;X} ZXAX#X=.&.JXmX,.<.M.m.rXDX1X=.=.*.&.X.X.....X.@.@.@.@.@.@.@.$. . .P P m V N j 8 H.",
"f d Z M G G F H I |  .| O.O.#.#.;.@.| | O.O.| o.:.DXzXm.:.! W ! :.3.X.N.JXGXnXJXtX=.;.N.DXfX,.&.*.:.0XSX+XW | O.| O.+.O.O.O.I +.O.Y @.Y Y ..Y S G G G G N s s 3X",
"f M A A G G H 5.+.+.O.$.@.#.Y 8.D.z.9.%.#.+.#.-.:.FXAX8X2X1X%X#X2.3.3.N.E.PXPXGX>.;.F.T JXGX,.-...<.0XHX+XX.@.#.%.+.6.I +.+.+.5.+.%.#.#.;.Y +.Y I I G A B j s Z.",
"f M P P O.I 5.5.q.q.%.%.9.7.e.e.l.p.0.6.q.8.9.1.,.JXKXvXKXKXFXFXB.=.V.B.~ PXPXpXU =.F.Y FXNXH.;.;.-.qXNX@X4.9.8.9.6.6.q.6.6.6.6.9.9.9.9.7.8.7.5.6.I I S T T s Z.",
"f M A O.+.%.8.q.8.0.t.t.t.p.e.i.i.w.0.6.w.w.t.s.v.DXcXT.R.~.T.L.N.B.(.o.vXJXPXSX~.=.F.y.AXnX).y.y.1.,XNX@X4.t.w.0.0.0.0.w.6.r.0.0.0.t.0.e.y.8.8.w.I #.@.Y Z s 3X",
"f M P I %.9.t.8.w.u.0.h.u.u.u.p.a.r.a.a.r.r.a.1.v.FXlXG.,.M.N.N.K.,.3.&XFXAXvXLXBXM.;.1.FXfX.XV.y.s.qXNX@Xa.h.i.w.u.u.u.r.r.r.r.r.r.r.w.u.w.0.0.w.I q.6.;.b a B.",
"0 P I I 9.t.h.t.u.h.h.j.p.h.h.h.c.a.a.a.h.c.a.3.H.SXvXT.H.N.K.H.P.I.H.KXFX2XM.DXFXbXV.-.PXNX`.A.h.s.sXSX,Xd.h.i.j.h.h.h.h.h.h.h.r.h.j.j.i.h.g.a.j.r.w.I Y T q ! ",
", A I 6.t.t.k.k.h.l.l.j.j.c.h.c.c.h.h.c.c.c.c./.P.SXSXfXvXvXAXMXtXb.vXLXBX2.`.oXAXMX$X2.JXmX_.A.l.g.qXNX,Xf.D.l.l.c.c.l.c.c.z.c.c.c.j.j.l.h.a.a.h.i.i.Y ;.T 7 y ",
"* n %.9.z.u.k.c.c.l.l.x.l.x.c.c.x.x.c.x.l.c.c.n.P.lXsXlXMXxXxXjXsXI.sXjX(.`.V.`.hXaX=XJ.lXuX*XC.D.g.,XMX*Xg.D.l.l.D.S.x.x.x.A.z.l.l.l.l.l.x.c.z.c.j.i.i.Y i < 6 ",
"@ > k 4.g.c.x.l.j.j.j.j.j.j.x.x.x.S.x.x.x.x.x.A.^././././.}.[.^././././.^.^.^.^.`.`.(.(._.).(.'.A.'.^./.'.].A.x.x.x.x.x.S.x.x.x.x.l.l.x.x.j.l.l.j.x.z.4.U 2 + 6 ",
". % 1 c 1.{.S.l.x.x.x.x.x.x.x.x.l.x.l.l.x.x.z.z.z.'.[.'.'.'.A.z.f.^.'.'.f.A.A.'.'.'.A.Z.f.C.'.'.C.A.A.A.z.z.x.c.c.x.l.l.x.l.x.x.x.x.x.j.j.x.x.x.{.A.s.L w - . 5 ",
"+ % - 2 z s.f.c.c.c.A.z.z.].A.z.x.x.S.S.S.S.S.S.A.'.{.[.'.].D.A.A.].].].].].{.{.].A.A.A.'.{.[.[.z.].].S.D.S.S.S.S.S.D.x.D.S.D.x.z.A.f.k.c.A.z.z.Z.@.z r ; +   J ",
"    o $ > 8 L 1.s.d.n.f.n.n.'.'.z.z.z.z.k.z.z.f.f.^././.^.^.^.C.C.f.C.C.C.C.'.Z.g.f.A.Z.[.^.C.f.^.n.^.'.f.z.f.f.A.z.k.z.c.z.z.f.C.^.'.C.n.n.a.X.v g 2 $ . . X 4 ",
"      . o # * > t i z k g h z x c b c c v c c c L L E E W W R R c L c c c c c c c c R W W W R L L E E L L k n k c v c c v c c c x c U z k p e 7 : # o o .   X 4 ",
"CXCXCXZXVXvXAXFXvXAXAXAXAXBXDXFXNXNXNXAXAXNXNXAXSXSXJXHXJXJXFXDXDXSXAXAXAXAXDXAXAXDXFXFXFXFXDXAXHXHXHXHXNXNXMXMXNXMXNXAXNXAXNXMXAXDXDXAXAXAXNXvXvXAXDXZXCXUXCXUX"
};
