/* XPM */
static char * next_xpm[] = {
"80 30 256 2",
"  	c None",
". 	c #000000",
"+ 	c #26282A",
"@ 	c #282A2C",
"# 	c #292B2E",
"$ 	c #2A2C2E",
"% 	c #2C2E30",
"& 	c #2D2F32",
"* 	c #2E3033",
"= 	c #2F3134",
"- 	c #323436",
"; 	c #333538",
"> 	c #333638",
", 	c #343639",
"' 	c #35373A",
") 	c #36383B",
"! 	c #36393C",
"~ 	c #373A3D",
"{ 	c #383B3E",
"] 	c #393C3F",
"^ 	c #393C40",
"/ 	c #3B3E40",
"( 	c #3C3E42",
"_ 	c #3D4043",
": 	c #3D4044",
"< 	c #3E4144",
"[ 	c #404246",
"} 	c #404346",
"| 	c #414347",
"1 	c #414447",
"2 	c #414448",
"3 	c #424548",
"4 	c #434649",
"5 	c #43464A",
"6 	c #44474B",
"7 	c #45484C",
"8 	c #46494D",
"9 	c #464A4D",
"0 	c #474A4E",
"a 	c #484B4F",
"b 	c #484B50",
"c 	c #484C50",
"d 	c #4A4D51",
"e 	c #4A4D52",
"f 	c #4B4F52",
"g 	c #4C5054",
"h 	c #4E5155",
"i 	c #4E5156",
"j 	c #4E5256",
"k 	c #515458",
"l 	c #52555A",
"m 	c #52565A",
"n 	c #53575C",
"o 	c #565A5E",
"p 	c #575B60",
"q 	c #585C60",
"r 	c #585D62",
"s 	c #595E62",
"t 	c #5A5E63",
"u 	c #5B5F64",
"v 	c #5C6065",
"w 	c #5C6066",
"x 	c #5D6267",
"y 	c #5E6368",
"z 	c #5F6468",
"A 	c #606368",
"B 	c #606469",
"C 	c #60646A",
"D 	c #61666B",
"E 	c #62666C",
"F 	c #64686D",
"G 	c #64696E",
"H 	c #656A6F",
"I 	c #666A70",
"J 	c #676C71",
"K 	c #676C72",
"L 	c #686C72",
"M 	c #696E74",
"N 	c #6A6E74",
"O 	c #6C7176",
"P 	c #6D7278",
"Q 	c #6E7278",
"R 	c #6E747A",
"S 	c #70757B",
"T 	c #70757C",
"U 	c #70767C",
"V 	c #72767C",
"W 	c #72777E",
"X 	c #73787E",
"Y 	c #74797F",
"Z 	c #385D8A",
"` 	c #3B6292",
" .	c #3E6798",
"..	c #52729A",
"+.	c #436FA3",
"@.	c #4673AA",
"#.	c #747A80",
"$.	c #767B82",
"%.	c #767C82",
"&.	c #787D83",
"*.	c #787D84",
"=.	c #787E84",
"-.	c #797E84",
";.	c #797E85",
">.	c #797F85",
",.	c #7A7F85",
"'.	c #7A7F86",
").	c #4F80BB",
"!.	c #4F81BD",
"~.	c #7A8086",
"{.	c #7C8188",
"].	c #7C8289",
"^.	c #7D838A",
"/.	c #7E838A",
"(.	c #7E848B",
"_.	c #7F848C",
":.	c #6684A7",
"<.	c #708BAB",
"[.	c #80858C",
"}.	c #80868D",
"|.	c #80868E",
"1.	c #82878F",
"2.	c #82888F",
"3.	c #838990",
"4.	c #838A91",
"5.	c #848A91",
"6.	c #848B92",
"7.	c #858C93",
"8.	c #868C93",
"9.	c #878D94",
"0.	c #878E95",
"a.	c #888E95",
"b.	c #888E96",
"c.	c #8A9098",
"d.	c #8B9299",
"e.	c #8C9199",
"f.	c #8C929A",
"g.	c #8E939C",
"h.	c #8D949C",
"i.	c #8E949C",
"j.	c #8F969D",
"k.	c #8F969E",
"l.	c #90969E",
"m.	c #91989F",
"n.	c #9198A1",
"o.	c #9298A0",
"p.	c #9399A2",
"q.	c #939AA2",
"r.	c #949AA2",
"s.	c #959CA4",
"t.	c #969DA5",
"u.	c #979EA6",
"v.	c #989EA6",
"w.	c #999FA8",
"x.	c #8AA2BE",
"y.	c #99A0A8",
"z.	c #9AA1A9",
"A.	c #9AA1AA",
"B.	c #9AA2AA",
"C.	c #9CA2AB",
"D.	c #9CA3AC",
"E.	c #9CA4AC",
"F.	c #9DA5AE",
"G.	c #9EA5AD",
"H.	c #9EA5AE",
"I.	c #9EA6AE",
"J.	c #A0A7B0",
"K.	c #A0A8B1",
"L.	c #A1A8B0",
"M.	c #A1A8B1",
"N.	c #A1A9B1",
"O.	c #A1A9B2",
"P.	c #A2A9B2",
"Q.	c #A2A9B3",
"R.	c #A2AAB2",
"S.	c #A2AAB3",
"T.	c #A3AAB3",
"U.	c #A4ABB3",
"V.	c #A4ABB4",
"W.	c #A4ACB5",
"X.	c #A5ADB6",
"Y.	c #A6ADB6",
"Z.	c #A6AEB6",
"`.	c #A7AFB8",
" +	c #A8AFB9",
".+	c #A8B0B8",
"++	c #A9B0BA",
"@+	c #A9B2BA",
"#+	c #AAB2BB",
"$+	c #ABB3BC",
"%+	c #ACB3BD",
"&+	c #ACB4BD",
"*+	c #ADB4BE",
"=+	c #ADB5BF",
"-+	c #AEB6BF",
";+	c #9BAEC4",
">+	c #AEB6C0",
",+	c #B0B8C2",
"'+	c #B2BAC3",
")+	c #B2BAC4",
"!+	c #B3BCC5",
"~+	c #B4BBC5",
"{+	c #B4BDC6",
"]+	c #B5BEC7",
"^+	c #B6BEC8",
"/+	c #B8BFCA",
"(+	c #B8C0CA",
"_+	c #B9C1CC",
":+	c #B9C2CC",
"<+	c #BAC3CC",
"[+	c #BAC3CE",
"}+	c #BBC4CE",
"|+	c #BCC5CE",
"1+	c #B4C2D3",
"2+	c #BDC6D0",
"3+	c #BEC6D0",
"4+	c #BFC7D2",
"5+	c #C0C8D3",
"6+	c #C0C9D4",
"7+	c #C1CAD5",
"8+	c #C2CBD5",
"9+	c #C2CBD6",
"0+	c #C3CCD6",
"a+	c #C4CDD7",
"b+	c #C5CED8",
"c+	c #C6CFD9",
"d+	c #C6CFDA",
"e+	c #C7D0DB",
"f+	c #C8D1DC",
"g+	c #C8D2DC",
"h+	c #C9D2DD",
"i+	c #CAD3DE",
"j+	c #CAD4DE",
"k+	c #CCD5E0",
"l+	c #CCD6E1",
"m+	c #CDD7E2",
"n+	c #CED7E3",
"o+	c #CED8E3",
"p+	c #CFD8E4",
"q+	c #D0D9E5",
"r+	c #D1DAE6",
"s+	c #D2DBE7",
"t+	c #D3DCE8",
"u+	c #D3DDE9",
"v+	c #D4DEE9",
"w+	c #D5DFEA",
"x+	c #D6E0EB",
"y+	c #D7E1EC",
"z+	c #D7E2EE",
"A+	c #D8E1ED",
"B+	c #D9E2EE",
"C+	c #D9E3EF",
"D+	c #DAE4F0",
"E+	c #DBE5F1",
"F+	c #DCE6F2",
"G+	c #F9FAFB",
"                                                                                                        Z                                                       ",
"                                                                                                        Z !.Z                                                   ",
"                                                                                                        Z !.Z !.;+                                              ",
"                                                                                                        Z !.F+F+Z ).                                            ",
"                                                                                                        Z !.F+F+F+F+Z  .                                        ",
"                                                                                                        Z !.F+F+F+F+F+F++.Z                                     ",
"                                                                                                        Z !.F+F+F+F+F+F+F+F++.Z                                 ",
"                                                                                                        Z !.F+F+F+F+F+F+F+F+F+z+!.Z                             ",
"Z !.Z Z Z Z Z Z Z Z Z Z Z Z Z Z Z Z Z Z Z Z Z Z Z Z Z Z Z Z Z Z Z Z Z Z Z Z Z Z Z Z Z Z Z Z Z Z Z Z Z Z Z Z F+F+F+F+F+F+F+F+F+F+F+:.!.Z                         ",
"Z !.F+F+F+F+F+F+F+F+F+F+F+F+F+F+F+F+F+F+F+F+F+F+F+F+F+F+F+F+F+F+F+F+F+F+F+F+F+F+F+F+F+F+F+F+F+F+F+F+F+F+F+F+F+F+F+F+F+F+F+F+F+F+F+F+F+Z ).;+                    ",
"Z !.F+F+F+F+F+F+F+F+F+F+F+F+F+F+F+F+F+F+F+F+F+F+F+F+F+F+F+F+F+F+F+F+F+F+F+F+F+F+F+F+F+F+F+F+F+F+F+F+F+F+F+F+F+F+F+F+F+F+F+F+F+F+F+F+F+F+F+Z ).                  ",
"Z !.F+F+F+F+F+F+F+F+F+F+F+F+F+F+F+F+. . . R.F+F+F+F+. . u+F+F+F+F+F+F+F+F+F+F+F+F+F+F+F+F+F+F+F+F+. X.F+F+F+F+F+F+F+F+F+F+F+F+F+F+F+F+F+F+F+F+Z  .              ",
"Z !.F+F+F+F+F+F+F+F+F+F+F+F+F+F+F+F+. . Z.. E.F+F+F+. . u+F+F+F+F+8+;.D+F+F+F+F+F+F+F+F+F+F+F+F+F+. 9 B+F+F+F+F+F+F+F+F+F+F+F+F+F+F+F+F+F+F+F+F+F+Z  .          ",
"Z !.F+F+F+F+F+F+F+F+F+F+F+F+F+F+F+F+. . *+u+. R F+F+. . u+F+F+. . h./+=+. . D+E+. . s+F+. . W.A+A.. 8 v.y.:+F+F+F+F+F+F+F+F+F+F+F+F+F+F+F+F+F+F+F+F+F++.Z       ",
"Z !.F+F+F+F+F+F+F+F+F+F+F+F+F+F+F+F+. . *+F+k+. V.F+. . u+F+;.. K.F+F+F+D+. C.F+F+. . . . 9+F+F+F+. 9 B+F+F+F+F+F+F+F+F+F+F+F+F+F+F+F+F+F+F+F+F+F+F+F+F+z+!.Z   ",
"Z !.F+F+F+F+F+F+F+F+F+F+F+F+F+F+F+F+. . *+F+F+r+. 1.. . u+F+. . p.Y.Y.Y.Y.Y.6+F+F+. . . . F+F+F+F+. 9 B+F+F+F+F+F+F+F+F+F+F+F+F+F+F+F+F+F+F+F+F+F+F+F+F+F+).Z   ",
"Z !.F+F+F+F+F+F+F+F+F+F+F+F+F+F+F+F+. . *+F+F+F+e+. . . u+F+E+. . F+F+F+F+F+F+F+. . u.A+. . D+F+F+. . w+F+F+F+F+F+F+F+F+F+F+F+F+F+F+F+F+F+F+F+F+F+F+F+ .Z       ",
"Z !.F+F+F+F+F+F+F+F+F+F+F+F+F+F+F+F+s.. =+F+F+F+F+q+. x w+F+F+D+V.. . . 8 8.p+. . =+F+F+E+. . D+F+t+. . . Z.F+F+F+F+F+F+F+F+F+F+F+F+F+F+F+F+F+F+F+Z +.          ",
"Z !.F+F+F+F+F+F+F+F+F+F+F+F+F+F+F+F+F+F+F+F+F+F+F+F+F+F+F+F+F+F+F+F+F+F+F+F+F+F+F+F+F+F+F+F+F+F+F+F+F+F+F+F+F+F+F+F+F+F+F+F+F+F+F+F+F+F+F+F+F+Z +.              ",
"Z !.F+F+F+F+F+F+F+F+F+F+F+F+F+F+F+F+F+F+F+F+F+F+F+F+F+F+F+F+F+F+F+F+F+F+F+F+F+F+F+F+F+F+F+F+F+F+F+F+F+F+F+F+F+F+F+F+F+F+F+F+F+F+F+F+F+F+F+Z !.G+                ",
"Z !.F+F+F+F+F+F+F+F+F+F+F+F+F+F+F+F+F+F+F+F+F+F+F+F+F+F+F+F+F+F+F+F+F+F+F+F+F+F+F+F+F+F+F+F+F+F+F+F+F+F+F+F+F+F+F+F+F+F+F+F+F+F+F+F+F+Z !.<.                    ",
"Z !.Z Z Z Z Z Z Z Z Z Z Z Z Z Z Z Z Z Z Z Z Z Z Z Z Z Z Z Z Z Z Z Z Z Z Z Z Z Z Z Z Z Z Z Z Z Z Z Z Z Z Z Z F+F+F+F+F+F+F+F+F+F+F+x.!.Z                         ",
"                                                                                                        Z !.F+F+F+F+F+F+F+F+F+F+).Z                             ",
"                                                                                                        Z !.F+F+F+F+F+F+F+F+ .Z                                 ",
"                                                                                                        Z !.F+F+F+F+F+F+ .Z                                     ",
"                                                                                                        Z !.F+F+F+F+Z +.                                        ",
"                                                                                                        Z !.F+F+Z !.G+                                          ",
"                                                                                                        Z !.Z !.<.                                              ",
"                                                                                                        Z !.Z                                                   ",
"                                                                                                        Z                                                       "};
